# xmcd CD database file generated by Grip 2.91
# 
# Track frame offsets:
#       150
#       26100
#       42822
#       61045
#       88617
#       101047
#       119200
#       137002
# 
# Disc length: 2049 seconds
# 
# Revision: 3
# Processed by: cddbd v1.4b41PL1 Copyright (c) Steve Scherf et al.
# Submitted via: Grip 2.91
# 
DISCID=6b07ff08
DTITLE=The Leon Thomas Blues Band - The Leon Thomas Blues Band
DYEAR=1900
DGENRE=
TTITLE0=Every Year I Get The Blues
TTITLE1=Shake, Rattle And Roll
TTITLE2=Every Day I Have The Blues
TTITLE3=School Girl Blues
TTITLE4=Flip Flop And Fly
TTITLE5=Duke's Place
TTITLE6=The Blues Is The Blues, Is The Blues
TTITLE7=Next Time You See Me
EXTD=
EXTT0=
EXTT1=
EXTT2=
EXTT3=
EXTT4=
EXTT5=
EXTT6=
EXTT7=
PLAYORDER=
